<mxfile host="app.diagrams.net" agent="Mozilla/5.0 (Windows NT 10.0; Win64; x64) AppleWebKit/537.36 (KHTML, like Gecko) Chrome/130.0.0.0 Safari/537.36" version="25.0.3">
  <diagram name="Trang-1" id="NB3aA5sWfYs9G1Ss0rfD">
    <mxGraphModel dx="1006" dy="531" grid="1" gridSize="10" guides="1" tooltips="1" connect="1" arrows="1" fold="1" page="1" pageScale="1" pageWidth="827" pageHeight="1169" math="0" shadow="0">
      <root>
        <mxCell id="0" />
        <mxCell id="1" parent="0" />
        <mxCell id="-X65bEwMZkOcBWrBNK_2-2" style="edgeStyle=orthogonalEdgeStyle;rounded=0;orthogonalLoop=1;jettySize=auto;html=1;exitX=0.5;exitY=1;exitDx=0;exitDy=0;entryX=0.5;entryY=0;entryDx=0;entryDy=0;" edge="1" parent="1" source="OKB8Icp0gVnIhBB7ut6P-1" target="-X65bEwMZkOcBWrBNK_2-1">
          <mxGeometry relative="1" as="geometry" />
        </mxCell>
        <mxCell id="OKB8Icp0gVnIhBB7ut6P-1" value="Start" style="ellipse;whiteSpace=wrap;html=1;" parent="1" vertex="1">
          <mxGeometry x="354" y="40" width="120" height="80" as="geometry" />
        </mxCell>
        <mxCell id="OKB8Icp0gVnIhBB7ut6P-7" value="" style="edgeStyle=orthogonalEdgeStyle;rounded=0;orthogonalLoop=1;jettySize=auto;html=1;entryX=0;entryY=0.5;entryDx=0;entryDy=0;" parent="1" source="OKB8Icp0gVnIhBB7ut6P-4" target="-X65bEwMZkOcBWrBNK_2-5" edge="1">
          <mxGeometry relative="1" as="geometry">
            <mxPoint x="580" y="480" as="targetPoint" />
          </mxGeometry>
        </mxCell>
        <mxCell id="OKB8Icp0gVnIhBB7ut6P-4" value="A&amp;lt;B" style="rhombus;whiteSpace=wrap;html=1;" parent="1" vertex="1">
          <mxGeometry x="374" y="440" width="80" height="80" as="geometry" />
        </mxCell>
        <mxCell id="OKB8Icp0gVnIhBB7ut6P-11" value="False" style="text;html=1;align=center;verticalAlign=middle;resizable=0;points=[];autosize=1;strokeColor=none;fillColor=none;" parent="1" vertex="1">
          <mxGeometry x="415" y="540" width="50" height="30" as="geometry" />
        </mxCell>
        <mxCell id="OKB8Icp0gVnIhBB7ut6P-12" value="End" style="rounded=0;whiteSpace=wrap;html=1;" parent="1" vertex="1">
          <mxGeometry x="350" y="880" width="120" height="60" as="geometry" />
        </mxCell>
        <mxCell id="-X65bEwMZkOcBWrBNK_2-3" style="edgeStyle=orthogonalEdgeStyle;rounded=0;orthogonalLoop=1;jettySize=auto;html=1;exitX=0.5;exitY=1;exitDx=0;exitDy=0;entryX=0.5;entryY=0;entryDx=0;entryDy=0;" edge="1" parent="1" source="-X65bEwMZkOcBWrBNK_2-1" target="OKB8Icp0gVnIhBB7ut6P-4">
          <mxGeometry relative="1" as="geometry" />
        </mxCell>
        <mxCell id="-X65bEwMZkOcBWrBNK_2-1" value="Nhập hai số A và B" style="shape=parallelogram;perimeter=parallelogramPerimeter;whiteSpace=wrap;html=1;fixedSize=1;" vertex="1" parent="1">
          <mxGeometry x="354" y="260" width="120" height="60" as="geometry" />
        </mxCell>
        <mxCell id="-X65bEwMZkOcBWrBNK_2-8" style="edgeStyle=orthogonalEdgeStyle;rounded=0;orthogonalLoop=1;jettySize=auto;html=1;exitX=0.5;exitY=1;exitDx=0;exitDy=0;entryX=0.5;entryY=0;entryDx=0;entryDy=0;" edge="1" parent="1" source="-X65bEwMZkOcBWrBNK_2-4" target="OKB8Icp0gVnIhBB7ut6P-12">
          <mxGeometry relative="1" as="geometry" />
        </mxCell>
        <mxCell id="-X65bEwMZkOcBWrBNK_2-4" value="A lớn hơn B" style="shape=parallelogram;perimeter=parallelogramPerimeter;whiteSpace=wrap;html=1;fixedSize=1;" vertex="1" parent="1">
          <mxGeometry x="350" y="670" width="120" height="60" as="geometry" />
        </mxCell>
        <mxCell id="-X65bEwMZkOcBWrBNK_2-7" style="edgeStyle=orthogonalEdgeStyle;rounded=0;orthogonalLoop=1;jettySize=auto;html=1;exitX=0.5;exitY=1;exitDx=0;exitDy=0;entryX=1;entryY=0.5;entryDx=0;entryDy=0;" edge="1" parent="1" source="-X65bEwMZkOcBWrBNK_2-5" target="OKB8Icp0gVnIhBB7ut6P-12">
          <mxGeometry relative="1" as="geometry" />
        </mxCell>
        <mxCell id="-X65bEwMZkOcBWrBNK_2-5" value="A nhỏ hơn B" style="shape=parallelogram;perimeter=parallelogramPerimeter;whiteSpace=wrap;html=1;fixedSize=1;" vertex="1" parent="1">
          <mxGeometry x="590" y="450" width="120" height="60" as="geometry" />
        </mxCell>
        <mxCell id="-X65bEwMZkOcBWrBNK_2-6" style="edgeStyle=orthogonalEdgeStyle;rounded=0;orthogonalLoop=1;jettySize=auto;html=1;exitX=0.5;exitY=1;exitDx=0;exitDy=0;entryX=0.533;entryY=0.167;entryDx=0;entryDy=0;entryPerimeter=0;" edge="1" parent="1" source="OKB8Icp0gVnIhBB7ut6P-4" target="-X65bEwMZkOcBWrBNK_2-4">
          <mxGeometry relative="1" as="geometry" />
        </mxCell>
      </root>
    </mxGraphModel>
  </diagram>
</mxfile>
